<svg width="214" height="210" viewBox="0 0 214 210" fill="none" xmlns="http://www.w3.org/2000/svg">
<path fill-rule="evenodd" clip-rule="evenodd" d="M49.5 80.125C49.5 63.2113 63.2113 49.5 80.125 49.5C97.0388 49.5 110.75 63.2113 110.75 80.125C110.75 97.0388 97.0388 110.75 80.125 110.75C63.2113 110.75 49.5 97.0388 49.5 80.125ZM80.125 74C76.7423 74 74 76.7423 74 80.125C74 83.5078 76.7423 86.25 80.125 86.25C83.5078 86.25 86.25 83.5078 86.25 80.125C86.25 76.7423 83.5078 74 80.125 74Z" fill="#2D3648"/>
<path fill-rule="evenodd" clip-rule="evenodd" d="M0.500031 37.25C0.500031 16.9536 16.9536 0.500031 37.25 0.500031H208.75C229.047 0.500031 245.5 16.9536 245.5 37.25V208.75C245.5 229.047 229.047 245.5 208.75 245.5H37.25C16.9536 245.5 0.500031 229.047 0.500031 208.75V37.25ZM37.25 25C30.4845 25 25 30.4845 25 37.25V208.75C25 214.003 28.3066 218.484 32.952 220.225L163.339 89.838C168.123 85.0541 175.879 85.0541 180.663 89.838L221 130.175V37.25C221 30.4845 215.516 25 208.75 25H37.25ZM221 164.823L172.001 115.824L66.8251 221H208.75C215.516 221 221 215.516 221 208.75V164.823Z" fill="#2D3648"/>
</svg>
