<svg width="143" height="139" viewBox="0 0 143 139" fill="none" xmlns="http://www.w3.org/2000/svg">
<path fill-rule="evenodd" clip-rule="evenodd" d="M36.25 59.3542C36.25 46.8702 46.3702 36.75 58.8542 36.75C71.3381 36.75 81.4583 46.8702 81.4583 59.3542C81.4583 71.8381 71.3381 81.9583 58.8542 81.9583C46.3702 81.9583 36.25 71.8381 36.25 59.3542ZM58.8542 54.8333C56.3574 54.8333 54.3333 56.8574 54.3333 59.3542C54.3333 61.851 56.3574 63.875 58.8542 63.875C61.351 63.875 63.375 61.851 63.375 59.3542C63.375 56.8574 61.351 54.8333 58.8542 54.8333Z" fill="#2D3648"/>
<path fill-rule="evenodd" clip-rule="evenodd" d="M0.0833435 27.7083C0.0833435 12.7276 12.2276 0.583344 27.2083 0.583344H153.792C168.772 0.583344 180.917 12.7276 180.917 27.7083V154.292C180.917 169.272 168.772 181.417 153.792 181.417H27.2083C12.2276 181.417 0.0833435 169.272 0.0833435 154.292V27.7083ZM27.2083 18.6667C22.2148 18.6667 18.1667 22.7148 18.1667 27.7083V154.292C18.1667 158.169 20.6073 161.476 24.036 162.761L120.274 66.5233C123.805 62.9923 129.53 62.9923 133.061 66.5233L162.833 96.2958V27.7083C162.833 22.7148 158.785 18.6667 153.792 18.6667H27.2083ZM162.833 121.869L126.667 85.7035L49.0375 163.333H153.792C158.785 163.333 162.833 159.285 162.833 154.292V121.869Z" fill="#2D3648"/>
</svg>
