<svg width="24" height="24" viewBox="0 0 24 24" fill="none" xmlns="http://www.w3.org/2000/svg">
<g clip-path="url(#clip0_25_122)">
<path d="M12.0264 24H11.9736C5.37142 24 0 18.6286 0 12.0264V11.9736C0 5.37142 5.37142 0 11.9736 0H12.0264C18.6286 0 24 5.37142 24 11.9736V12.0264C24 18.6286 18.6286 24 12.0264 24ZM11.9736 0.812375C5.81904 0.812375 0.812375 5.81904 0.812375 11.9736V12.0264C0.812375 18.1809 5.81904 23.1876 11.9736 23.1876H12.0264C18.181 23.1876 23.1876 18.1809 23.1876 12.0264V11.9736C23.1876 5.81904 18.181 0.812375 12.0264 0.812375H11.9736Z" fill="#2D3648"/>
<path d="M4.79787 11.6039C4.83036 11.5877 4.86287 11.5722 4.89455 11.5576C5.44535 11.3025 6.00345 11.0637 6.56074 10.8248C6.5908 10.8248 6.64115 10.7899 6.66958 10.7785C6.71264 10.7599 6.7557 10.742 6.79876 10.7233C6.88162 10.6876 6.96449 10.6526 7.04654 10.6169C7.21226 10.5462 7.37716 10.4755 7.54289 10.4048C7.87352 10.2635 8.20416 10.1221 8.53479 9.97996C9.19607 9.69726 9.85817 9.41374 10.5194 9.13104C11.1807 8.84833 11.8428 8.56481 12.5041 8.28211C13.1653 7.9994 13.8274 7.71589 14.4887 7.43318C15.15 7.15047 15.8121 6.86694 16.4733 6.58423C16.6204 6.52087 16.7796 6.42663 16.9372 6.39901C17.0696 6.37545 17.1988 6.32996 17.332 6.30478C17.5847 6.25685 17.8633 6.23735 18.1054 6.34215C18.1891 6.3787 18.2662 6.42989 18.3304 6.49407C18.6375 6.7979 18.5944 7.29669 18.5295 7.724C18.077 10.7022 17.6245 13.6811 17.1712 16.6593C17.1094 17.0679 17.0249 17.5164 16.7024 17.7747C16.4295 17.9932 16.0411 18.0176 15.704 17.925C15.3669 17.8316 15.0695 17.6358 14.7779 17.4433C13.5683 16.6423 12.3578 15.8413 11.1482 15.0403C10.8606 14.8502 10.5406 14.6016 10.5438 14.2563C10.5454 14.0484 10.6697 13.8631 10.7965 13.6982C11.8477 12.3269 13.3644 11.3846 14.4928 10.0766C14.652 9.89222 14.7771 9.55915 14.5586 9.45273C14.4286 9.38937 14.2791 9.47548 14.1605 9.55753C12.669 10.5933 11.1783 11.6299 9.68676 12.6657C9.20014 13.0036 8.68997 13.3513 8.10344 13.4342C7.57864 13.5089 7.0506 13.3627 6.54287 13.2132C6.11718 13.0881 5.6923 12.9598 5.26905 12.8273C5.04402 12.7575 4.81168 12.6819 4.63783 12.5235C4.46398 12.3651 4.36407 12.0986 4.46887 11.8874C4.53467 11.755 4.66222 11.6713 4.79626 11.6031L4.79787 11.6039Z" fill="#2D3648"/>
</g>
<defs>
<clipPath id="clip0_25_122">
<rect width="24" height="24" fill="white"/>
</clipPath>
</defs>
</svg>
