<svg width="117" height="117" viewBox="0 0 117 117" fill="none" xmlns="http://www.w3.org/2000/svg">
<path fill-rule="evenodd" clip-rule="evenodd" d="M38.2397 32.5574C40.6866 26.3971 47.6641 23.3869 53.8244 25.8339C59.9846 28.2808 62.9948 35.2583 60.5479 41.4186C58.1009 47.5788 51.1234 50.589 44.9632 48.1421C38.8029 45.6951 35.7927 38.7176 38.2397 32.5574ZM50.2799 34.7572C49.0478 34.2678 47.6523 34.8698 47.1629 36.1019C46.6735 37.3339 47.2756 38.7294 48.5076 39.2188C49.7397 39.7082 51.1352 39.1061 51.6246 37.8741C52.114 36.6421 51.5119 35.2466 50.2799 34.7572Z" fill="#2D3648"/>
<path fill-rule="evenodd" clip-rule="evenodd" d="M26.5959 9.85267C29.5323 2.46038 37.9053 -1.15188 45.2976 1.78447L107.761 26.5958C115.153 29.5322 118.765 37.9052 115.829 45.2975L91.0174 107.76C88.081 115.153 79.708 118.765 72.3157 115.829L9.85275 91.0173C2.46046 88.0809 -1.15179 79.7079 1.78455 72.3156L26.5959 9.85267ZM41.7531 10.7078C39.289 9.72897 36.498 10.9331 35.5192 13.3972L10.7078 75.8601C9.94785 77.7734 10.5039 79.8838 11.944 81.1899L78.2963 52.5644C80.7308 51.5141 83.5558 52.6362 84.6061 55.0707L93.4618 75.5977L106.905 41.753C107.884 39.2889 106.68 36.4979 104.216 35.5191L41.7531 10.7078ZM88.4491 88.2172L77.6917 63.2821L24.1689 86.3727L75.8602 106.905C78.3243 107.884 81.1153 106.68 82.0941 104.216L88.4491 88.2172Z" fill="#2D3648"/>
</svg>
