<svg width="24" height="24" viewBox="0 0 24 24" fill="none" xmlns="http://www.w3.org/2000/svg">
<g clip-path="url(#clip0_25_117)">
<path d="M12.0264 24H11.9736C5.37143 24 0 18.6286 0 12.0264V11.9736C0 5.37142 5.37143 0 11.9736 0H12.0264C18.6286 0 24 5.37142 24 11.9736V12.0264C24 18.6286 18.6286 24 12.0264 24ZM11.9736 0.812375C5.81905 0.812375 0.812375 5.81904 0.812375 11.9736V12.0264C0.812375 18.1809 5.81905 23.1876 11.9736 23.1876H12.0264C18.181 23.1876 23.1876 18.1809 23.1876 12.0264V11.9736C23.1876 5.81904 18.181 0.812375 12.0264 0.812375H11.9736Z" fill="#2D3648"/>
<path d="M14.2596 15.3913C11.292 15.3913 8.87764 12.9761 8.87683 10.0085C8.87764 9.25625 9.49018 8.64453 10.2408 8.64453C10.318 8.64453 10.3943 8.65103 10.4675 8.66403C10.6283 8.69084 10.781 8.74527 10.9216 8.82732C10.9419 8.8395 10.9557 8.85899 10.9589 8.88174L11.2725 10.8583C11.2766 10.8818 11.2693 10.9046 11.2538 10.9216C11.0808 11.1133 10.8598 11.2514 10.6137 11.3205L10.4951 11.3538L10.5398 11.4683C10.9443 12.4984 11.7681 13.3214 12.799 13.7276L12.9135 13.773L12.9468 13.6544C13.0159 13.4083 13.154 13.1873 13.3457 13.0143C13.3595 13.0013 13.3782 12.9948 13.3969 12.9948C13.401 12.9948 13.405 12.9948 13.4099 12.9956L15.3864 13.3092C15.41 13.3132 15.4295 13.3262 15.4416 13.3466C15.5229 13.4871 15.5773 13.6406 15.6049 13.8015C15.6179 13.873 15.6236 13.9485 15.6236 14.0273C15.6236 14.7788 15.0119 15.3905 14.2596 15.3913Z" fill="#2D3648"/>
<path d="M19.5222 11.3489C19.3622 9.54058 18.5335 7.86301 17.1891 6.62576C15.8365 5.3812 14.0817 4.69556 12.2466 4.69556C8.21881 4.69556 4.94169 7.97269 4.94169 12.0004C4.94169 13.3522 5.31457 14.6691 6.02052 15.8162L4.44614 19.3013L9.48693 18.7643C10.3635 19.1234 11.2912 19.3053 12.2458 19.3053C12.4968 19.3053 12.7543 19.2923 13.0126 19.2655C13.2401 19.2411 13.47 19.2054 13.6959 19.1599C17.0688 18.4783 19.5311 15.4847 19.5506 12.0394V12.0004C19.5506 11.7811 19.5409 11.5618 19.5214 11.3497L19.5222 11.3489ZM9.68109 17.2346L6.89221 17.5319L7.72489 15.687L7.55835 15.4636C7.54617 15.4473 7.53398 15.4311 7.52017 15.4124C6.79716 14.414 6.41533 13.2344 6.41533 12.0013C6.41533 8.78588 9.03118 6.17003 12.2466 6.17003C15.2589 6.17003 17.8122 8.52022 18.0583 11.5203C18.0713 11.6812 18.0786 11.8429 18.0786 12.0021C18.0786 12.0476 18.0778 12.0922 18.077 12.1402C18.0152 14.83 16.1362 17.1143 13.5074 17.696C13.3067 17.7407 13.1012 17.7748 12.8965 17.7967C12.6836 17.8211 12.4651 17.8333 12.2482 17.8333C11.4756 17.8333 10.725 17.6838 10.0158 17.3881C9.93699 17.3564 9.85981 17.3223 9.7875 17.2874L9.6819 17.2362L9.68109 17.2346Z" fill="#2D3648"/>
</g>
<defs>
<clipPath id="clip0_25_117">
<rect width="24" height="24" fill="white"/>
</clipPath>
</defs>
</svg>
