<svg width="107" height="106" viewBox="0 0 107 106" fill="none" xmlns="http://www.w3.org/2000/svg">
<path fill-rule="evenodd" clip-rule="evenodd" d="M21.75 34.4792C21.75 27.1729 27.6729 21.25 34.9792 21.25C42.2854 21.25 48.2083 27.1729 48.2083 34.4792C48.2083 41.7854 42.2854 47.7083 34.9792 47.7083C27.6729 47.7083 21.75 41.7854 21.75 34.4792ZM34.9792 31.8333C33.5179 31.8333 32.3333 33.0179 32.3333 34.4792C32.3333 35.9404 33.5179 37.125 34.9792 37.125C36.4404 37.125 37.625 35.9404 37.625 34.4792C37.625 33.0179 36.4404 31.8333 34.9792 31.8333Z" fill="#2D3648"/>
<path fill-rule="evenodd" clip-rule="evenodd" d="M0.583344 15.9583C0.583344 7.19082 7.69082 0.0833435 16.4583 0.0833435H90.5417C99.3092 0.0833435 106.417 7.19082 106.417 15.9583V90.0417C106.417 98.8092 99.3092 105.917 90.5417 105.917H16.4583C7.69082 105.917 0.583344 98.8092 0.583344 90.0417V15.9583ZM16.4583 10.6667C13.5358 10.6667 11.1667 13.0358 11.1667 15.9583V90.0417C11.1667 92.3109 12.595 94.2465 14.6017 94.9985L70.9253 38.6749C72.9918 36.6084 76.3423 36.6084 78.4089 38.6749L95.8333 56.0994V15.9583C95.8333 13.0358 93.4642 10.6667 90.5417 10.6667H16.4583ZM95.8333 71.0665L74.6671 49.9002L29.234 95.3333H90.5417C93.4642 95.3333 95.8333 92.9642 95.8333 90.0417V71.0665Z" fill="#2D3648"/>
</svg>
