<svg width="56" height="56" viewBox="0 0 56 56" fill="none" xmlns="http://www.w3.org/2000/svg">
<path fill-rule="evenodd" clip-rule="evenodd" d="M21.9019 14.5877C23.6127 12.1262 26.9949 11.5177 29.4564 13.2285C31.9178 14.9392 32.5264 18.3215 30.8156 20.783C29.1048 23.2444 25.7226 23.853 23.2611 22.1422C20.7996 20.4314 20.1911 17.0492 21.9019 14.5877ZM26.9783 16.794C26.486 16.4518 25.8095 16.5735 25.4674 17.0658C25.1252 17.5581 25.2469 18.2346 25.7392 18.5767C26.2315 18.9189 26.908 18.7972 27.2501 18.3049C27.5923 17.8126 27.4706 17.1361 26.9783 16.794Z" fill="#2D3648"/>
<path fill-rule="evenodd" clip-rule="evenodd" d="M19.1076 3.39186C21.1605 0.438101 25.2192 -0.292159 28.173 1.76078L53.1315 19.1075C56.0852 21.1605 56.8155 25.2192 54.7626 28.173L37.4158 53.1314C35.3628 56.0852 31.3041 56.8155 28.3504 54.7625L3.39188 37.4158C0.438125 35.3628 -0.292136 31.3041 1.7608 28.3503L19.1076 3.39186ZM25.6949 5.32627C24.7103 4.64196 23.3574 4.88538 22.6731 5.86997L5.3263 30.8285C4.79495 31.5929 4.82294 32.5795 5.32291 33.3027L37.4865 27.5157C38.6666 27.3034 39.7953 28.0879 40.0077 29.268L41.7979 39.2183L51.1971 25.6949C51.8814 24.7103 51.6379 23.3574 50.6534 22.673L25.6949 5.32627ZM38.2934 44.2606L36.1186 32.1737L10.1741 36.8417L30.8285 51.197C31.8131 51.8813 33.166 51.6379 33.8503 50.6533L38.2934 44.2606Z" fill="#2D3648"/>
</svg>
