<svg width="113" height="113" viewBox="0 0 113 113" fill="none" xmlns="http://www.w3.org/2000/svg">
<path fill-rule="evenodd" clip-rule="evenodd" d="M22.75 36.8125C22.75 29.046 29.046 22.75 36.8125 22.75C44.579 22.75 50.875 29.046 50.875 36.8125C50.875 44.579 44.579 50.875 36.8125 50.875C29.046 50.875 22.75 44.579 22.75 36.8125ZM36.8125 34C35.2592 34 34 35.2592 34 36.8125C34 38.3658 35.2592 39.625 36.8125 39.625C38.3658 39.625 39.625 38.3658 39.625 36.8125C39.625 35.2592 38.3658 34 36.8125 34Z" fill="#2D3648"/>
<path fill-rule="evenodd" clip-rule="evenodd" d="M0.25 17.125C0.25 7.80519 7.80519 0.25 17.125 0.25H95.875C105.195 0.25 112.75 7.80519 112.75 17.125V95.875C112.75 105.195 105.195 112.75 95.875 112.75H17.125C7.80519 112.75 0.25 105.195 0.25 95.875V17.125ZM17.125 11.5C14.0184 11.5 11.5 14.0184 11.5 17.125V95.875C11.5 98.2872 13.0183 100.345 15.1514 101.144L75.0229 41.2725C77.2196 39.0758 80.7812 39.0758 82.9779 41.2725L101.5 59.7946V17.125C101.5 14.0184 98.9816 11.5 95.875 11.5H17.125ZM101.5 75.7045L79.0004 53.2049L30.7054 101.5H95.875C98.9816 101.5 101.5 98.9816 101.5 95.875V75.7045Z" fill="#2D3648"/>
</svg>
