<svg width="182" height="166" viewBox="0 0 182 166" fill="none" xmlns="http://www.w3.org/2000/svg">
<path fill-rule="evenodd" clip-rule="evenodd" d="M35 59.9167C35 47.2601 45.2601 37 57.9166 37C70.5732 37 80.8333 47.2601 80.8333 59.9167C80.8333 72.5732 70.5732 82.8333 57.9166 82.8333C45.2601 82.8333 35 72.5732 35 59.9167ZM57.9166 55.3333C55.3853 55.3333 53.3333 57.3854 53.3333 59.9167C53.3333 62.448 55.3853 64.5 57.9166 64.5C60.4479 64.5 62.5 62.448 62.5 59.9167C62.5 57.3854 60.4479 55.3333 57.9166 55.3333Z" fill="#2D3648"/>
<path fill-rule="evenodd" clip-rule="evenodd" d="M-1.66669 27.8333C-1.66669 12.6455 10.6455 0.333328 25.8333 0.333328H154.167C169.354 0.333328 181.667 12.6455 181.667 27.8333V156.167C181.667 171.354 169.354 183.667 154.167 183.667H25.8333C10.6455 183.667 -1.66669 171.354 -1.66669 156.167V27.8333ZM25.8333 18.6667C20.7707 18.6667 16.6666 22.7707 16.6666 27.8333V156.167C16.6666 160.098 19.141 163.451 22.6171 164.753L120.186 67.1848C123.765 63.605 129.569 63.605 133.149 67.1848L163.333 97.369V27.8333C163.333 22.7707 159.229 18.6667 154.167 18.6667H25.8333ZM163.333 123.296L126.667 86.6303L47.9643 165.333H154.167C159.229 165.333 163.333 161.229 163.333 156.167V123.296Z" fill="#2D3648"/>
</svg>
