<svg width="88" height="69" viewBox="0 0 88 69" fill="none" xmlns="http://www.w3.org/2000/svg">
<path fill-rule="evenodd" clip-rule="evenodd" d="M19.9921 43.2405C17.7492 38.996 19.3718 33.7369 23.6164 31.4939C27.8609 29.251 33.1201 30.8737 35.363 35.1182C37.6059 39.3628 35.9832 44.6219 31.7387 46.8648C27.4941 49.1077 22.235 47.4851 19.9921 43.2405ZM26.8653 37.6423C26.0164 38.0909 25.6919 39.1427 26.1404 39.9916C26.589 40.8405 27.6409 41.165 28.4898 40.7165C29.3387 40.2679 29.6632 39.2161 29.2146 38.3671C28.766 37.5182 27.7142 37.1937 26.8653 37.6423Z" fill="#2D3648"/>
<path fill-rule="evenodd" clip-rule="evenodd" d="M2.00981 38.9787C-0.681674 33.8853 1.26551 27.5743 6.35896 24.8829L49.3974 2.14046C54.4908 -0.551027 60.8018 1.39615 63.4933 6.48961L86.2357 49.528C88.9271 54.6215 86.98 60.9324 81.8865 63.6239L38.8481 86.3663C33.7546 89.0578 27.4437 87.1106 24.7522 82.0172L2.00981 38.9787ZM9.60787 31.0312C7.91006 31.9284 7.261 34.032 8.15816 35.7298L30.9006 78.7682C31.5972 80.0865 33.0212 80.7725 34.4178 80.5934L49.8483 30.582C50.4145 28.7471 52.3609 27.7185 54.1958 28.2847L69.6676 33.0583L57.3449 9.73852C56.4478 8.0407 54.3441 7.39164 52.6463 8.28881L9.60787 31.0312ZM74.2622 41.7534L55.4681 35.9546L43.0211 76.296L78.6376 57.4756C80.3354 56.5784 80.9845 54.4747 80.0873 52.7769L74.2622 41.7534Z" fill="#2D3648"/>
</svg>
