<svg width="241" height="241" viewBox="0 0 241 241" fill="none" xmlns="http://www.w3.org/2000/svg">
<path fill-rule="evenodd" clip-rule="evenodd" d="M77.6676 66.4032C82.7273 53.6655 97.1548 47.4413 109.893 52.5009C122.63 57.5605 128.855 71.9881 123.795 84.7258C118.735 97.4635 104.308 103.688 91.57 98.6281C78.8323 93.5685 72.608 79.1409 77.6676 66.4032ZM102.564 70.9518C100.016 69.9399 97.1305 71.1847 96.1185 73.7323C95.1066 76.2798 96.3515 79.1653 98.899 80.1772C101.447 81.1892 104.332 79.9443 105.344 77.3968C106.356 74.8492 105.111 71.9637 102.564 70.9518Z" fill="#2D3648"/>
<path fill-rule="evenodd" clip-rule="evenodd" d="M53.5916 19.4561C59.6632 4.17091 76.9763 -3.29825 92.2615 2.77331L221.418 54.0764C236.703 60.148 244.172 77.4611 238.101 92.7463L186.797 221.903C180.726 237.188 163.413 244.657 148.128 238.585L18.9713 187.282C3.68609 181.211 -3.78306 163.898 2.2885 148.612L53.5916 19.4561ZM84.9325 21.2242C79.8374 19.2004 74.0664 21.6901 72.0425 26.7851L20.7394 155.941C19.1679 159.898 20.3177 164.261 23.2954 166.962L160.494 107.772C165.528 105.601 171.369 107.921 173.541 112.955L191.852 155.399L219.65 85.4173C221.674 80.3222 219.184 74.5512 214.089 72.5273L84.9325 21.2242ZM181.487 181.492L159.244 129.934L48.5732 177.679L155.457 220.135C160.552 222.158 166.323 219.669 168.347 214.574L181.487 181.492Z" fill="#2D3648"/>
</svg>
