<svg width="180" height="180" viewBox="0 0 180 180" fill="none" xmlns="http://www.w3.org/2000/svg">
<path fill-rule="evenodd" clip-rule="evenodd" d="M39.6902 87.6403C35.0525 78.8637 38.4076 67.9893 47.1842 63.3516C55.9608 58.7139 66.8352 62.0691 71.4729 70.8456C76.1106 79.6222 72.7554 90.4966 63.9789 95.1343C55.2023 99.772 44.3279 96.4168 39.6902 87.6403ZM53.9021 76.0647C52.1468 76.9922 51.4757 79.1671 52.4033 80.9224C53.3308 82.6777 55.5057 83.3488 57.261 82.4212C59.0163 81.4937 59.6873 79.3188 58.7598 77.5635C57.8323 75.8082 55.6574 75.1372 53.9021 76.0647Z" fill="#2D3648"/>
<path fill-rule="evenodd" clip-rule="evenodd" d="M2.50774 78.8281C-3.05751 68.2962 0.968717 55.247 11.5006 49.6817L100.492 2.65668C111.024 -2.90858 124.073 1.11765 129.639 11.6495L176.664 100.641C182.229 111.173 178.203 124.222 167.671 129.788L78.6792 176.813C68.1473 182.378 55.098 178.352 49.5328 167.82L2.50774 78.8281ZM18.2184 62.3948C14.7078 64.2499 13.3657 68.5996 15.2208 72.1103L62.2458 161.102C63.6863 163.828 66.6307 165.246 69.5185 164.876L101.425 61.4659C102.595 57.6718 106.62 55.545 110.414 56.7157L142.405 66.5863L116.926 18.3674C115.07 14.8568 110.721 13.5147 107.21 15.3698L18.2184 62.3948ZM151.906 84.5653L113.045 72.5751L87.3079 155.99L160.953 117.074C164.464 115.219 165.806 110.87 163.951 107.359L151.906 84.5653Z" fill="#2D3648"/>
</svg>
