<svg width="115" height="115" viewBox="0 0 115 115" fill="none" xmlns="http://www.w3.org/2000/svg">
<path fill-rule="evenodd" clip-rule="evenodd" d="M44.0772 29.5181C47.6146 24.4285 54.6082 23.1701 59.6978 26.7076C64.7874 30.245 66.0458 37.2386 62.5083 42.3282C58.9709 47.4178 51.9773 48.6762 46.8877 45.1387C41.798 41.6013 40.5397 34.6077 44.0772 29.5181ZM54.5738 34.08C53.5558 33.3725 52.1571 33.6242 51.4496 34.6421C50.7421 35.6601 50.9938 37.0588 52.0117 37.7663C53.0297 38.4737 54.4284 38.2221 55.1359 37.2042C55.8433 36.1862 55.5917 34.7875 54.5738 34.08Z" fill="#2D3648"/>
<path fill-rule="evenodd" clip-rule="evenodd" d="M38.2993 6.36815C42.5442 0.2606 50.9365 -1.24938 57.0441 2.99553L108.651 38.8639C114.759 43.1088 116.269 51.5011 112.024 57.6087L76.1557 109.216C71.9107 115.324 63.5184 116.834 57.4109 112.589L5.80357 76.7202C-0.303985 72.4753 -1.81396 64.083 2.43094 57.9755L38.2993 6.36815ZM51.92 10.368C49.8842 8.95303 47.0867 9.45636 45.6718 11.4922L9.80341 63.0995C8.70474 64.6803 8.7626 66.7202 9.79641 68.2156L76.3018 56.2497C78.7419 55.8107 81.0759 57.4329 81.5149 59.873L85.2168 80.4473L104.652 52.4846C106.067 50.4488 105.563 47.6513 103.527 46.2364L51.92 10.368ZM77.9703 90.8736L73.4735 65.881L19.8273 75.5332L62.5349 105.216C64.5708 106.631 67.3682 106.128 68.7832 104.092L77.9703 90.8736Z" fill="#2D3648"/>
</svg>
